<?xml version="1.0" encoding="UTF-8"?>
<svg xmlns="http://www.w3.org/2000/svg" xmlns:xlink="http://www.w3.org/1999/xlink" width="90px" height="90px" viewBox="0 0 90 90" version="1.1">
<g id="surface1">
<path style=" stroke:none;fill-rule:nonzero;fill:rgb(0%,0%,0%);fill-opacity:1;" d="M 31.183594 15.210938 C 25.964844 17.054688 22.050781 21.375 20.921875 26.417969 L 20.609375 27.898438 L 29.925781 27.898438 L 30.691406 26.546875 C 31.679688 24.796875 34.019531 23.402344 36.003906 23.402344 C 37.980469 23.402344 40.320312 24.796875 41.308594 26.546875 L 42.078125 27.898438 L 51.386719 27.898438 L 51.074219 26.417969 C 50.539062 24.03125 48.691406 20.792969 46.753906 18.851562 C 42.886719 14.984375 36.226562 13.410156 31.183594 15.210938 Z M 31.183594 15.210938 "/>
<path style=" stroke:none;fill-rule:nonzero;fill:rgb(0%,0%,0%);fill-opacity:1;" d="M 34.199219 27.898438 C 32.492188 29.609375 33.664062 32.398438 36.089844 32.398438 C 37.171875 32.398438 38.699219 30.828125 38.699219 29.703125 C 38.699219 29.207031 38.292969 28.394531 37.796875 27.898438 C 37.304688 27.40625 36.496094 27 36.003906 27 C 35.503906 27 34.695312 27.40625 34.199219 27.898438 Z M 34.199219 27.898438 "/>
<path style=" stroke:none;fill-rule:nonzero;fill:rgb(0%,0%,0%);fill-opacity:1;" d="M 20.921875 32.941406 C 21.46875 35.503906 23.9375 39.601562 25.871094 41.21875 C 29.15625 43.875 31.679688 44.773438 36.003906 44.773438 C 40.320312 44.773438 42.839844 43.875 46.125 41.21875 C 48.058594 39.601562 50.539062 35.503906 51.074219 32.941406 L 51.386719 31.496094 L 42.078125 31.496094 L 41.308594 32.847656 C 40.320312 34.605469 37.980469 36.003906 36.003906 36.003906 C 34.019531 36.003906 31.679688 34.605469 30.691406 32.847656 L 29.925781 31.496094 L 20.609375 31.496094 Z M 20.921875 32.941406 "/>
<path style=" stroke:none;fill-rule:nonzero;fill:rgb(0%,0%,0%);fill-opacity:1;" d="M 67.589844 36.765625 C 64.710938 38.160156 63.226562 41.941406 64.304688 45.042969 C 64.796875 46.484375 64.753906 46.621094 62.457031 48.917969 C 60.523438 50.894531 60.167969 51.433594 60.566406 52.0625 C 61.425781 53.414062 62.054688 53.191406 64.578125 50.804688 C 66.867188 48.648438 67.136719 48.511719 68.21875 48.960938 C 72.542969 50.988281 77.847656 46.933594 77.265625 42.027344 C 76.773438 37.347656 71.867188 34.652344 67.589844 36.765625 Z M 73.394531 40.007812 C 74.296875 40.90625 74.703125 41.757812 74.703125 42.746094 C 74.703125 44.6875 72.585938 46.800781 70.648438 46.800781 C 68.714844 46.800781 66.597656 44.6875 66.597656 42.746094 C 66.597656 41.757812 67.003906 40.90625 67.90625 40.007812 C 69.703125 38.25 71.59375 38.25 73.394531 40.007812 Z M 73.394531 40.007812 "/>
<path style=" stroke:none;fill-rule:nonzero;fill:rgb(0%,0%,0%);fill-opacity:1;" d="M 25.695312 52.019531 C 22.09375 52.964844 19.214844 54.71875 16.46875 57.601562 C 12.644531 61.605469 10.800781 66.242188 10.800781 71.910156 C 10.800781 75.238281 11.613281 77.085938 13.632812 78.300781 C 15.03125 79.15625 16.019531 79.199219 36.003906 79.199219 C 55.980469 79.199219 56.96875 79.15625 58.363281 78.300781 C 60.296875 77.128906 61.199219 75.238281 61.199219 72.316406 C 61.199219 66.375 59.398438 61.648438 55.574219 57.644531 C 52.738281 54.671875 49.90625 52.964844 46.125 51.976562 C 42.570312 51.074219 29.15625 51.074219 25.695312 52.019531 Z M 25.695312 52.019531 "/>
</g>
</svg>
